<svg width="20" height="20" viewBox="0 0 20 20" fill="none" xmlns="http://www.w3.org/2000/svg">
<path fill-rule="evenodd" clip-rule="evenodd" d="M3.33334 9.99992C3.33334 9.53968 3.70644 9.16658 4.16668 9.16658H15.8333C16.2936 9.16658 16.6667 9.53968 16.6667 9.99992C16.6667 10.4602 16.2936 10.8333 15.8333 10.8333H4.16668C3.70644 10.8333 3.33334 10.4602 3.33334 9.99992Z" fill="#3A3A3A"/>
<path fill-rule="evenodd" clip-rule="evenodd" d="M10.5893 3.57733C10.9147 3.90277 10.9147 4.4304 10.5893 4.75584L5.34519 9.99992L10.5893 15.244C10.9147 15.5694 10.9147 16.0971 10.5893 16.4225C10.2638 16.7479 9.73619 16.7479 9.41075 16.4225L3.57742 10.5892C3.25198 10.2637 3.25198 9.7361 3.57742 9.41066L9.41075 3.57733C9.73619 3.25189 10.2638 3.25189 10.5893 3.57733Z" fill="#3A3A3A"/>
</svg>
