<svg width="20" height="20" viewBox="0 0 20 20" fill="none" xmlns="http://www.w3.org/2000/svg">
<path fill-rule="evenodd" clip-rule="evenodd" d="M5.87479 1.66675C4.43783 1.66675 3.05974 2.23757 2.04366 3.25365C1.02758 4.26973 0.456757 5.64783 0.456757 7.08478C0.456757 8.52173 1.02758 9.89982 2.04366 10.9159L9.41072 18.283C9.4514 18.3236 9.49524 18.3592 9.54145 18.3897C9.86493 18.6033 10.3045 18.5677 10.5893 18.283L17.9564 10.9159C18.9724 9.89982 19.5433 8.52173 19.5433 7.08478C19.5433 5.64783 18.9724 4.26973 17.9564 3.25365C16.9403 2.23757 15.5622 1.66675 14.1252 1.66675C12.6883 1.66675 11.3102 2.23757 10.2941 3.25365L10 3.54775L9.70591 3.25365C8.68983 2.23757 7.31174 1.66675 5.87479 1.66675ZM10.5893 5.31561C10.3045 5.60038 9.86493 5.63597 9.54145 5.4224C9.49524 5.39188 9.4514 5.35629 9.41072 5.31561L8.52734 4.43223C7.82384 3.72873 6.86968 3.3335 5.87479 3.3335C4.87989 3.3335 3.92573 3.72873 3.22223 4.43223C2.51873 5.13573 2.12351 6.08988 2.12351 7.08478C2.12351 8.07968 2.51873 9.03383 3.22223 9.73733L10 16.5151L16.7778 9.73733C17.4813 9.03383 17.8765 8.07968 17.8765 7.08478C17.8765 6.08988 17.4813 5.13573 16.7778 4.43223C16.0743 3.72873 15.1201 3.3335 14.1252 3.3335C13.1303 3.3335 12.1762 3.72873 11.4727 4.43223L10.5893 5.31561Z" fill="#CBCBD4"/>
</svg>
