<svg width="16" height="14" viewBox="0 0 16 14" fill="none" xmlns="http://www.w3.org/2000/svg">
<path d="M1.63494 1.60278C2.4478 0.789913 3.55028 0.333252 4.69984 0.333252C5.8494 0.333252 6.95188 0.789913 7.76474 1.60278L8.00002 1.83805L8.2353 1.60278C9.04816 0.789913 10.1506 0.333252 11.3002 0.333252C12.4498 0.333252 13.5522 0.789913 14.3651 1.60278C15.178 2.41564 15.6346 3.51811 15.6346 4.66767C15.6346 5.81723 15.178 6.91971 14.3651 7.73257L8.47144 13.6262C8.24363 13.854 7.89195 13.8825 7.63317 13.7117C7.5962 13.6872 7.56113 13.6588 7.52858 13.6262L1.63494 7.73257C0.822079 6.91971 0.365417 5.81723 0.365417 4.66767C0.365417 3.51811 0.822079 2.41564 1.63494 1.60278Z" fill="#EB4335"/>
</svg>
