<svg width="20" height="21" viewBox="0 0 20 21" fill="none" xmlns="http://www.w3.org/2000/svg">
<path d="M6.66665 9.66658C6.20641 9.66658 5.83331 10.0397 5.83331 10.4999C5.83331 10.9602 6.20641 11.3333 6.66665 11.3333H13.3333C13.7935 11.3333 14.1666 10.9602 14.1666 10.4999C14.1666 10.0397 13.7935 9.66658 13.3333 9.66658H6.66665Z" fill="black" fill-opacity="0.75"/>
<path fill-rule="evenodd" clip-rule="evenodd" d="M9.99998 1.33325C4.93737 1.33325 0.833313 5.43731 0.833313 10.4999C0.833313 15.5625 4.93737 19.6666 9.99998 19.6666C15.0626 19.6666 19.1666 15.5625 19.1666 10.4999C19.1666 5.43731 15.0626 1.33325 9.99998 1.33325ZM2.49998 10.4999C2.49998 6.35778 5.85784 2.99992 9.99998 2.99992C14.1421 2.99992 17.5 6.35778 17.5 10.4999C17.5 14.6421 14.1421 17.9999 9.99998 17.9999C5.85784 17.9999 2.49998 14.6421 2.49998 10.4999Z" fill="black" fill-opacity="0.75"/>
</svg>
