<svg width="20" height="21" viewBox="0 0 20 21" fill="none" xmlns="http://www.w3.org/2000/svg">
<path d="M10 6.33325C10.4603 6.33325 10.8334 6.70635 10.8334 7.16658V9.66658H13.3334C13.7936 9.66658 14.1667 10.0397 14.1667 10.4999C14.1667 10.9602 13.7936 11.3333 13.3334 11.3333H10.8334V13.8333C10.8334 14.2935 10.4603 14.6666 10 14.6666C9.5398 14.6666 9.16671 14.2935 9.16671 13.8333V11.3333H6.66671C6.20647 11.3333 5.83337 10.9602 5.83337 10.4999C5.83337 10.0397 6.20647 9.66658 6.66671 9.66658H9.16671V7.16658C9.16671 6.70635 9.5398 6.33325 10 6.33325Z" fill="black" fill-opacity="0.75"/>
<path fill-rule="evenodd" clip-rule="evenodd" d="M0.833374 10.4999C0.833374 5.43731 4.93743 1.33325 10 1.33325C15.0626 1.33325 19.1667 5.43731 19.1667 10.4999C19.1667 15.5625 15.0626 19.6666 10 19.6666C4.93743 19.6666 0.833374 15.5625 0.833374 10.4999ZM10 2.99992C5.8579 2.99992 2.50004 6.35778 2.50004 10.4999C2.50004 14.6421 5.8579 17.9999 10 17.9999C14.1422 17.9999 17.5 14.6421 17.5 10.4999C17.5 6.35778 14.1422 2.99992 10 2.99992Z" fill="black" fill-opacity="0.75"/>
</svg>
