<svg width="10" height="10" viewBox="0 0 10 10" fill="none" xmlns="http://www.w3.org/2000/svg">
<path d="M5.56044 0.556612C5.45515 0.343297 5.23788 0.208252 5 0.208252C4.76211 0.208252 4.54485 0.343297 4.43956 0.556612L3.29733 2.87063L0.742939 3.24399C0.507588 3.27839 0.312163 3.44339 0.238802 3.66965C0.165441 3.8959 0.226862 4.14419 0.397248 4.31014L2.24509 6.10994L1.80899 8.6526C1.76877 8.88709 1.86518 9.12408 2.05766 9.26391C2.25015 9.40374 2.50533 9.42216 2.71591 9.31142L5 8.11024L7.28409 9.31142C7.49466 9.42216 7.74985 9.40374 7.94233 9.26391C8.13482 9.12408 8.23122 8.88709 8.191 8.6526L7.75491 6.10994L9.60275 4.31014C9.77313 4.14419 9.83455 3.8959 9.76119 3.66965C9.68783 3.44339 9.49241 3.27839 9.25706 3.24399L6.70266 2.87063L5.56044 0.556612Z" fill="black"/>
</svg>
